<?xml version="1.0" encoding="UTF-8" standalone="no"?>
<!DOCTYPE svg PUBLIC "-//W3C//DTD SVG 1.1//EN"
 "http://www.w3.org/Graphics/SVG/1.1/DTD/svg11.dtd">
<!-- Generated by graphviz version 15.1.0 (20260618.0150)
 -->
<!-- Title: dependency&#45;cruiser output Pages: 1 -->
<svg width="110pt" height="112pt"
 viewBox="0.00 0.00 110.00 112.00" xmlns="http://www.w3.org/2000/svg" xmlns:xlink="http://www.w3.org/1999/xlink">
<g id="graph0" class="graph" transform="scale(1 1) rotate(0) translate(4 108)">
<title>dependency&#45;cruiser output</title>
<polygon fill="white" stroke="none" points="-4,4 -4,-108 106,-108 106,4 -4,4"/>
<g id="clust1" class="cluster">
<title>cluster_eto</title>
<path fill="#ffffff" stroke="black" stroke-width="2" d="M20,-8C20,-8 82,-8 82,-8 88,-8 94,-14 94,-20 94,-20 94,-84 94,-84 94,-90 88,-96 82,-96 82,-96 20,-96 20,-96 14,-96 8,-90 8,-84 8,-84 8,-20 8,-20 8,-14 14,-8 20,-8"/>
<text xml:space="preserve" text-anchor="middle" x="51" y="-83.45" font-family="Helvetica,sans-Serif" font-weight="bold" font-size="9.00">eto</text>
</g>
<g id="clust2" class="cluster">
<title>cluster_eto/extensions</title>
<path fill="#ffffff" stroke="black" stroke-width="2" d="M28,-16C28,-16 74,-16 74,-16 80,-16 86,-22 86,-28 86,-28 86,-57 86,-57 86,-63 80,-69 74,-69 74,-69 28,-69 28,-69 22,-69 16,-63 16,-57 16,-57 16,-28 16,-28 16,-22 22,-16 28,-16"/>
<text xml:space="preserve" text-anchor="middle" x="51" y="-56.45" font-family="Helvetica,sans-Serif" font-weight="bold" font-size="9.00">extensions</text>
</g>
<!-- eto/extensions/eto.ts -->
<g id="node1" class="node">
<title>eto/extensions/eto.ts</title>
<g id="a_node1"><a xlink:href="eto/extensions/eto.ts" xlink:title="eto.ts">
<path fill="#ccffcc" stroke="black" d="M71.83,-42.25C71.83,-42.25 30.17,-42.25 30.17,-42.25 27.08,-42.25 24,-39.17 24,-36.08 24,-36.08 24,-29.92 24,-29.92 24,-26.83 27.08,-23.75 30.17,-23.75 30.17,-23.75 71.83,-23.75 71.83,-23.75 74.92,-23.75 78,-26.83 78,-29.92 78,-29.92 78,-36.08 78,-36.08 78,-39.17 74.92,-42.25 71.83,-42.25"/>
<text xml:space="preserve" text-anchor="start" x="40.12" y="-30" font-family="Helvetica,sans-Serif" font-size="9.00">eto.ts</text>
</a>
</g>
</g>
</g>
</svg>
